<svg fill="none" height="40" viewBox="0 0 170 40" width="170" xmlns="http://www.w3.org/2000/svg" xmlns:xlink="http://www.w3.org/1999/xlink"><clipPath id="a"><path d="m0 0h170v40h-170z"/></clipPath><g clip-path="url(#a)" clip-rule="evenodd" fill="#fff" fill-rule="evenodd"><path d="m0 .310393h7.94633c3.05227 0 5.38527.835117 6.99907 2.505387 1.6138 1.67026 2.4207 4.00343 2.4207 6.99958v17.20194c0 3.4438-.8507 5.9836-2.5522 7.6195-1.7016 1.6358-4.1486 2.4537-7.34119 2.4537h-7.47271zm5.36752 31.822107h2.47336c1.50858 0 2.57862-.3702 3.21012-1.1107.6315-.7404.9472-1.9027.9472-3.4868v-17.71854c0-1.44641-.2982-2.56565-.8946-3.35773-.5964-.79209-1.68397-1.18812-3.26272-1.18812h-2.47336zm16.73478-23.14313c0-1.48085.2631-2.7895.7893-3.92597.5263-1.13646 1.2192-2.0749 2.0787-2.81533.8596-.74042 1.8243-1.300039 2.8944-1.678862 1.07-.378823 2.1488-.56823144 3.2364-.56823144s2.1664.18940844 3.2364.56823144c1.0701.378823 2.0348.938442 2.8944 1.678862.8595.74043 1.5524 1.67887 2.0787 2.81533.5262 1.13647.7893 2.44512.7893 3.92597v19.42323c0 1.5153-.2631 2.8325-.7893 3.9518-.5263 1.1192-1.2192 2.049-2.0787 2.7895-.8596.7404-1.8243 1.3-2.8944 1.6788-1.07.3788-2.1488.5683-3.2364.5683s-2.1664-.1895-3.2364-.5683c-1.0701-.3788-2.0348-.9384-2.8944-1.6788-.8595-.7405-1.5524-1.6703-2.0787-2.7895-.5262-1.1193-.7893-2.4365-.7893-3.9518zm5.368 19.42373c0 1.2743.3596 2.2127 1.0788 2.8154.7192.6026 1.5699.904 2.5523.904.9823 0 1.8331-.3014 2.5523-.904.7192-.6027 1.0788-1.5411 1.0788-2.8154v-19.42316c0-1.27422-.3596-2.21265-1.0788-2.81533-.7192-.60267-1.57-.904-2.5523-.904-.9824 0-1.8331.30133-2.5523.904-.7192.60268-1.0788 1.54111-1.0788 2.81533zm17.366-28.102707h7.8411c1.719 0 3.1837.258285 4.3941.774857 1.2104.51658 2.2015 1.20534 2.9733 2.0663s1.3244 1.85105 1.6577 2.9703.4999 2.28153.4999 3.48688v1.34307c0 .9987-.0789 1.8425-.2368 2.5312-.1579.6888-.3947 1.2915-.7104 1.808-.3158.5166-.7017.9729-1.1578 1.369-.456.396-.9823.7662-1.5787 1.1106 1.263.5855 2.1927 1.455 2.7891 2.6087s.8946 2.6948.8946 4.6233v2.0663c0 3.2373-.7981 5.7168-2.3944 7.4387s-4.1486 2.5829-7.6569 2.5829h-7.3148zm5.3675 31.511807h2.3155c1.0876 0 1.9383-.155 2.5523-.4649.6139-.31 1.0788-.7404 1.3945-1.2915.3158-.551.5087-1.2053.5789-1.9629.0702-.7577.1053-1.5842.1053-2.4796 0-.9298-.0527-1.7391-.1579-2.4279-.1053-.6888-.3245-1.2656-.6578-1.7305s-.7982-.8179-1.3946-1.059-1.3858-.3616-2.3681-.3616h-2.3681zm0-16.4267h2.4207c1.7893 0 2.9909-.4391 3.6048-1.3173.614-.8782.921-2.161.921-3.8485 0-1.65302-.3421-2.89279-1.0262-3.71931-.6842-.82653-1.9208-1.23978-3.7101-1.23978h-2.2102zm22.4184 1.3431h3.0522c.9472 0 1.7015-.1292 2.2629-.3875.5613-.2583.9911-.6285 1.2893-1.1106s.4999-1.0762.6051-1.7822c.1053-.706.1579-1.5239.1579-2.4537 0-.9299-.0526-1.74776-.1579-2.45375-.1052-.70598-.3245-1.30865-.6578-1.808-.3332-.49936-.7981-.86957-1.3945-1.11064s-1.3858-.3616-2.3681-.3616h-2.7891zm-5.3675-16.428207h8.6304c6.315 0 9.4724 3.598767 9.4724 10.796407 0 2.1352-.342 3.969-1.0261 5.5015-.6842 1.5325-1.8857 2.7637-3.6048 3.6935l5.7887 16.7887h-5.6835l-4.9993-15.7039h-3.2101v15.7039h-5.3677zm22.1018 8.678977c0-1.48085.2631-2.7895.7893-3.92597.5263-1.13646 1.2192-2.0749 2.0787-2.81533.8595-.74042 1.8243-1.300039 2.8944-1.678862 1.07-.378823 2.1488-.56823144 3.2364-.56823144s2.1667.18940844 3.2367.56823144 2.035.938442 2.894 1.678862c.86.74043 1.552 1.67887 2.079 2.81533.526 1.13647.789 2.44512.789 3.92597v19.42323c0 1.5153-.263 2.8325-.789 3.9518-.527 1.1192-1.219 2.049-2.079 2.7895-.859.7404-1.824 1.3-2.894 1.6788s-2.1491.5683-3.2367.5683-2.1664-.1895-3.2364-.5683c-1.0701-.3788-2.0349-.9384-2.8944-1.6788-.8595-.7405-1.5524-1.6703-2.0787-2.7895-.5262-1.1193-.7893-2.4365-.7893-3.9518zm5.3679 19.42373c0 1.2743.3596 2.2127 1.0789 2.8154.7192.6026 1.5699.904 2.5523.904.9823 0 1.8334-.3014 2.5524-.904.719-.6027 1.079-1.5411 1.079-2.8154v-19.42316c0-1.27422-.36-2.21265-1.079-2.81533-.719-.60267-1.5701-.904-2.5524-.904-.9824 0-1.8331.30133-2.5523.904-.7193.60268-1.0789 1.54111-1.0789 2.81533zm17.3666-28.102707h5.368v31.511007h10.63v5.2691h-15.998zm40.543 0h7.841c1.719 0 3.184.258285 4.394.774857 1.211.51658 2.202 1.20534 2.974 2.0663.771.86096 1.324 1.85105 1.657 2.9703.334 1.11925.5 2.28153.5 3.48688v1.34307c0 .9987-.079 1.8425-.237 2.5312-.157.6888-.394 1.2915-.71 1.808-.316.5166-.702.9729-1.158 1.369-.456.396-.982.7662-1.579 1.1106 1.263.5855 2.193 1.455 2.79 2.6087.596 1.1537.894 2.6948.894 4.6233v2.0663c0 3.2373-.798 5.7168-2.394 7.4387-1.597 1.7219-4.149 2.5829-7.657 2.5829h-7.315zm5.289 31.511807h2.315c1.088 0 1.939-.155 2.553-.4649.614-.31 1.078-.7404 1.394-1.2915.316-.551.509-1.2053.579-1.9629.07-.7577.105-1.5842.105-2.4796 0-.9298-.052-1.7391-.158-2.4279-.105-.6888-.324-1.2656-.657-1.7305-.334-.4649-.799-.8179-1.395-1.059s-1.386-.3616-2.368-.3616h-2.368zm0-16.4267h2.421c1.789 0 2.99-.4391 3.604-1.3173s.921-2.161.921-3.8485c0-1.65302-.342-2.89279-1.026-3.71931-.684-.82653-1.921-1.23978-3.71-1.23978h-2.21z"/><path d="m130.9.00097656v37.23602344l6.887-4.1842 1.625 6.0653 4.077-1.0925-1.615-6.0286h8.576zm4.726 17.09282344 5.789 9.9647-5.789 1.4443z"/></g></svg>